<svg width="97" height="45" viewBox="0 0 97 45" xmlns="http://www.w3.org/2000/svg" fill="none"><path d="M12.7 29.4C12.4 28.7 12.2 28 11.9 27.4 11.7 26.9 11.6 26.4 11.4 26 10.5 26.3 9.5 26.5 8.4 26.6 8.4 28.1 8.4 29.4 8.5 30.5 8.5 31.1 8.6 31.7 8.6 32.2 8.6 32.6 8.7 33 8.7 33.3 8.7 33.6 8.8 33.9 8.8 34.2 8.9 34.5 8.9 34.7 9 35 8.6 35.4 8.1 35.6 7.7 35.8 7.2 35.9 6.9 36.1 6.5 36.1 6.1 36.2 5.8 36.2 5.5 36.2 5.4 35.9 5.3 35.5 5.2 35.1 5.1 34.8 5 34.3 5 33.7 4.9 33.1 4.9 32.3 4.9 31.3 4.9 30.4 5 29.1 5 27.6 5 27.5 5.1 27.3 5.1 27.1 5.1 27 5.1 26.8 5.1 26.6 4.9 26.6 4.7 26.6 4.4 26.6 4.2 26.5 4 26.5 3.8 26.5 3.7 26.1 3.6 25.8 3.5 25.5 3.5 25.2 3.4 25 3.4 24.8 3.4 24.5 3.5 24.4 3.5 24.2 3.9 24.3 4.3 24.3 4.6 24.3H5.2C5.2 23.3 5.3 22.3 5.3 21.3 5.4 20.3 5.4 19.3 5.4 18.3 5.5 17.4 5.5 16.4 5.5 15.6 5.5 14.7 5.6 13.9 5.6 13.1 4.9 13.6 4.3 14.2 3.8 15 3.2 15.7 2.9 16.6 2.7 17.6 2.4 17.5 2.1 17.4 1.9 17.1 1.7 16.9 1.5 16.6 1.4 16.4 1.2 16.1 1.1 15.7 1 15.4 0.9 14.9 0.9 14.5 1 14 1.1 13.5 1.3 13.1 1.5 12.7 1.7 12.3 2 11.9 2.3 11.6 2.6 11.3 2.9 11 3.2 10.9 3.7 10.5 4.2 10.3 4.7 10 5.2 9.8 5.8 9.6 6.5 9.4 6.8 9.2 7 8.9 7.3 8.7 7.7 8.5 8 8.4 8.3 8.3 8.7 8.2 8.9 8.5 8.9 9.1 9.1 9 9.4 9 9.6 9 9.8 9 10.1 9 10.3 9 11.2 9 12.1 9.1 13.1 9.4 14.1 9.7 14.9 10.1 15.7 10.8 16.6 11.4 17.2 12.2 17.8 13.2 18.3 14.2 18.5 15.4 18.5 16.8 18.5 18.4 18.1 19.9 17.4 21.3 16.6 22.7 15.5 23.8 14.1 24.7 14.3 25.1 14.5 25.6 14.8 26.3 15 26.9 15.3 27.6 15.5 28.4 15.9 29.4 16.3 30.3 16.7 31.2 17.2 32 17.6 32.8 18.1 33.4 18.6 34 19.1 34.5 19.6 34.9 20.1 35.3 20.6 35.5 21.1 35.6 20.8 36.1 20.5 36.4 20.1 36.6 19.7 36.8 19.3 36.9 18.9 36.9 18.4 37 18 37 17.5 36.9 16.8 36.8 16.2 36.5 15.7 36 15.2 35.4 14.8 34.8 14.4 34.1 14.1 33.4 13.7 32.6 13.4 31.8 13.1 30.9 12.9 30.1 12.7 29.4ZM8.6 14.4C8.6 14.9 8.6 15.5 8.5 16.3 8.5 17 8.5 17.8 8.5 18.6 8.5 19.5 8.5 20.4 8.4 21.3 8.4 22.2 8.4 23.1 8.4 24 9 23.9 9.7 23.8 10.5 23.6 11.2 23.4 12 23 12.6 22.5 13.3 22 13.8 21.4 14.3 20.6 14.7 19.7 14.9 18.7 14.9 17.4 14.9 16.4 14.8 15.6 14.4 14.9 14.1 14.2 13.6 13.6 13.1 13.2 12.6 12.8 12 12.4 11.3 12.3 10.7 12 10.1 11.9 9.4 11.9 9.3 11.9 9.2 11.9 9.1 11.9 8.9 11.9 8.8 12 8.7 12 8.6 12.7 8.6 13.5 8.6 14.4ZM25.2 33.4C23.5 33.4 22.3 32.8 21.4 31.7 20.5 30.6 20 29.2 20 27.4 20 26.2 20.2 25 20.6 23.9 20.9 22.8 21.4 21.9 22 21.1 22.6 20.3 23.4 19.7 24.1 19.2 25 18.8 25.8 18.5 26.7 18.5 27.6 18.5 28.3 18.8 28.9 19.5 29.5 20.1 29.8 21 29.8 22.1 29.8 22.9 29.7 23.6 29.4 24.4 29 25.1 28.6 25.7 28.1 26.3 27.5 26.9 27 27.3 26.3 27.7 25.7 28 25.1 28.2 24.5 28.2 24.1 28.2 23.8 28.2 23.6 28.1 23.3 28 23.1 27.8 22.8 27.7 22.9 29 23.2 29.9 23.7 30.5 24.2 31 24.9 31.2 25.7 31.2 26.3 31.2 26.8 31.1 27.2 30.9 27.7 30.7 28 30.4 28.3 30.1 28.6 29.8 28.9 29.5 29.1 29.2 29.3 28.8 29.4 28.6 29.5 28.4 29.5 28.3 29.6 28.2 29.8 28.2 30 28.2 30.1 28.4 30.1 28.6 30.1 28.9 30 29.3 29.8 29.8 29.6 30.4 29.4 30.9 29 31.4 28.6 31.9 28.1 32.4 27.4 32.8 26.8 33.2 26.1 33.4 25.2 33.4ZM26.8 20C26.6 20 26.4 20.2 26 20.5 25.6 20.8 25.2 21.2 24.7 21.8 24.3 22.3 23.9 23 23.6 23.8 23.2 24.6 23 25.4 22.9 26.4 24.3 26.1 25.4 25.6 26.2 24.9 27 24.2 27.5 23.1 27.5 21.8 27.5 21.1 27.4 20.6 27.2 20.4 27 20.2 26.9 20 26.8 20ZM37.7 26.3C38.2 26.5 38.7 26.7 39.2 26.8 39.6 27 40 27.2 40.4 27.4 40.7 27.7 41 28 41.2 28.3 41.4 28.6 41.6 29 41.6 29.4 41.6 30 41.4 30.5 41.2 31 40.9 31.5 40.6 32 40.1 32.3 39.6 32.7 39.1 33 38.4 33.2 37.7 33.4 37 33.6 36.2 33.6 35.3 33.6 34.5 33.5 34 33.3 33.4 33.1 33 32.9 32.7 32.7 32.4 32.4 32.2 32.2 32.1 32 32 31.7 31.9 31.6 31.9 31.4 31.9 31.1 32 30.8 32.1 30.5 32.2 30.2 32.4 29.8 32.8 29.4 32.9 29.2 33.1 29.1 33.2 28.9 33.5 28.6 33.9 28.5 34.2 28.4 34.2 28.9 34.2 29.4 34.4 29.7 34.6 30.1 34.8 30.3 35.1 30.5 35.4 30.7 35.7 30.8 36.1 30.9 36.4 31 36.8 31 37.1 31 37.4 31 37.8 30.9 38.1 30.9 38.5 30.8 38.8 30.6 39.1 30.5 39.3 30.3 39.6 30.2 39.7 30 39.9 29.8 40 29.5 40 29.3 40 29.1 39.9 28.8 39.7 28.7 39.5 28.5 39.2 28.4 38.9 28.3 38.6 28.2 38.2 28.1 37.9 28 37.5 28 37.2 27.9 36.8 27.8 36.5 27.8 36.1 27.7 35.5 27.6 35 27.4 34.4 27.2 33.9 26.9 33.4 26.6 32.9 26.3 32.5 25.8 32.1 25.3 32 24.7 32 23.9 32 23 32.2 22.3 32.6 21.6 33.1 20.9 33.7 20.4 34.3 19.9 35 19.5 35.7 19.1 36.5 18.9 37.2 18.6 37.9 18.5 38.5 18.5 38.8 18.5 39.1 18.6 39.4 18.7 39.8 18.7 40.1 18.9 40.4 19.1 40.7 19.3 41 19.5 41.2 19.9 41.4 20.2 41.5 20.6 41.5 21.1 41.5 21.6 41.4 22.1 41.3 22.4 41.3 22.7 41.2 22.9 41 23.1 40.8 23.3 40.7 23.4 40.5 23.4 40.3 23.5 40 23.5 39.7 23.5 39.5 23.5 39.4 23.5 39.2 23.4 39.1 23.4 38.9 23.3 38.7 23.3 38.6 23.3 38.4 23.2 38.3 23.1 38.5 22.8 38.7 22.5 38.8 22.2 38.9 22 39 21.7 39 21.3 39 21 38.9 20.7 38.7 20.4 38.6 20.2 38.3 20 37.9 20 37.5 20 37.1 20.1 36.7 20.3 36.3 20.4 35.9 20.7 35.6 20.9 35.4 21.2 35.1 21.6 34.9 21.9 34.8 22.3 34.7 22.7 34.7 23.1 34.7 23.7 34.9 24.3 35.4 24.9 35.9 25.4 36.7 25.9 37.7 26.3ZM48.3 33.4C46.7 33.4 45.4 32.8 44.5 31.7 43.6 30.6 43.2 29.2 43.2 27.4 43.2 26.2 43.3 25 43.7 23.9 44.1 22.8 44.6 21.9 45.2 21.1 45.8 20.3 46.5 19.7 47.3 19.2 48.1 18.8 49 18.5 49.8 18.5 50.7 18.5 51.5 18.8 52.1 19.5 52.7 20.1 53 21 53 22.1 53 22.9 52.8 23.6 52.5 24.4 52.2 25.1 51.7 25.7 51.2 26.3 50.7 26.9 50.1 27.3 49.5 27.7 48.8 28 48.2 28.2 47.6 28.2 47.3 28.2 46.9 28.2 46.7 28.1 46.4 28 46.2 27.8 46 27.7 46.1 29 46.3 29.9 46.9 30.5 47.4 31 48 31.2 48.9 31.2 49.4 31.2 49.9 31.1 50.3 30.9 50.8 30.7 51.2 30.4 51.5 30.1 51.8 29.8 52 29.5 52.2 29.2 52.4 28.8 52.5 28.6 52.6 28.4 52.7 28.3 52.8 28.2 52.9 28.2 53.1 28.2 53.2 28.4 53.2 28.6 53.2 28.9 53.1 29.3 52.9 29.8 52.8 30.4 52.5 30.9 52.1 31.4 51.7 31.9 51.2 32.4 50.6 32.8 49.9 33.2 49.2 33.4 48.3 33.4ZM49.9 20C49.8 20 49.5 20.2 49.1 20.5 48.7 20.8 48.3 21.2 47.9 21.8 47.5 22.3 47.1 23 46.7 23.8 46.3 24.6 46.1 25.4 46 26.4 47.4 26.1 48.5 25.6 49.4 24.9 50.2 24.2 50.6 23.1 50.6 21.8 50.6 21.1 50.5 20.6 50.3 20.4 50.2 20.2 50 20 49.9 20ZM64.8 22.2C64.8 22.5 64.7 22.9 64.5 23.2 64.3 23.6 64.1 23.9 63.9 24.2 63.6 24.5 63.3 24.8 63 25 62.7 25.2 62.4 25.3 62.1 25.4 62.3 24.6 62.4 24.1 62.3 23.7 62.2 23.3 62.1 23 61.9 22.8 61.8 22.6 61.5 22.5 61.2 22.5 60.8 22.5 60.4 22.7 60 23.2 59.6 23.7 59.3 24.2 59 24.9 58.7 25.6 58.5 26.4 58.4 27.2 58.2 27.9 58.1 28.6 58.1 29.3 58.1 29.7 58.1 30.2 58.1 30.6 58.2 30.9 58.2 31.3 58.3 31.7 58.3 32 58.4 32.3 58.5 32.5 58.4 32.7 58.2 32.8 57.8 33 57.5 33.1 57.2 33.2 56.8 33.3 56.5 33.3 56.2 33.3 55.9 33.1 55.7 32.9 55.5 32.6 55.5 32.1 55.5 31.5 55.4 31 55.4 30.3 55.4 29.7 55.4 29 55.4 28.4 55.4 27.7 55.4 27.1 55.5 26.5 55.5 25.8 55.5 25.2 55.6 24.7 55.6 23.7 55.6 22.9 55.6 22.3 55.6 21.8 55.6 21.2 55.6 20.7 55.6 20.6 55.8 20.5 56.1 20.3 56.4 20.1 56.8 20 57.1 19.8 57.5 19.7 57.9 19.6 58.2 19.6 58.5 19.5 58.7 19.6 58.7 19.8 58.7 20 58.7 20.6 58.6 21.3 58.6 22.1 58.5 22.9 58.4 23.7 58.6 23.2 58.8 22.8 59 22.2 59.3 21.7 59.6 21.2 60 20.8 60.3 20.4 60.7 20 61.2 19.7 61.6 19.4 62.1 19.3 62.6 19.3 63.1 19.3 63.4 19.4 63.7 19.6 63.9 19.9 64.2 20.2 64.3 20.5 64.5 20.8 64.6 21.2 64.7 21.5 64.8 21.8 64.8 22.1 64.8 22.2ZM70.4 31.2C70.7 31.2 70.9 30.8 71.3 30 71.6 29.3 72 28.4 72.3 27.3 72.6 26.3 72.9 25.2 73.1 24.1 73.3 22.9 73.3 22 73.2 21.2 73.2 21 73.1 20.8 73 20.6 72.9 20.4 72.9 20.3 72.7 20.1 72.9 19.9 73.1 19.7 73.3 19.6 73.5 19.5 73.7 19.4 73.9 19.4 74.1 19.3 74.3 19.3 74.6 19.3 75.1 19.2 75.5 19.3 75.8 19.5 75.9 19.7 76 20 76 20.5 76 21 75.9 21.6 75.8 22.3 75.7 23 75.6 23.8 75.4 24.5 75.2 25.3 75.1 26 74.8 26.6 74.6 27.2 74.4 27.9 74.1 28.6 73.8 29.3 73.4 30 73.1 30.6 72.8 31.3 72.5 31.8 72.1 32.3 71.8 32.7 71.5 33 71.3 33.1 70.8 33.3 70.3 33.4 69.8 33.4 69.3 33.4 69.1 33.3 68.9 33.2 68.9 33.2 68.8 33 68.6 32.7 68.5 32.4 68.3 32.1 68.1 31.6 67.9 31.2 67.7 30.7 67.4 30.1 67.2 29.5 67 28.8 66.9 28.1 66.7 27.5 66.6 26.7 66.5 25.9 66.4 25.1 66.4 24.4 66.3 23.6 66.2 22.8 66.1 22.1 65.9 21.5 65.8 20.8 65.6 20.3 65.3 19.9L67 19.2C67.1 19.1 67.3 19.1 67.5 19 67.6 18.9 67.8 18.9 68 18.9 68.2 19 68.4 19.1 68.5 19.2 68.7 19.4 68.8 19.6 68.8 20 68.9 20.4 68.9 20.9 68.9 21.5 69 22.1 69 22.7 69 23.3 69.1 24 69.1 24.6 69.2 25.2 69.2 25.8 69.3 26.4 69.3 26.9 69.4 27.4 69.4 27.9 69.5 28.4 69.6 28.9 69.7 29.4 69.8 29.8 69.9 30.2 70 30.5 70.1 30.8 70.2 31 70.3 31.2 70.4 31.2ZM78.1 20.6C78.1 20.4 78.3 20.3 78.6 20.1 79 19.9 79.4 19.8 79.9 19.7 80.3 19.6 80.8 19.5 81.1 19.5 81.5 19.5 81.7 19.6 81.7 19.8 81.7 20.1 81.7 20.6 81.7 21.3 81.6 21.9 81.6 22.6 81.5 23.3 81.4 24 81.3 24.8 81.3 25.5 81.2 26.2 81.2 26.8 81.1 27.3 81.1 27.8 81 28.3 81 29 80.9 29.5 80.9 30 80.9 30.7 80.9 31.3 80.9 32 80.9 32.6 80.9 32.7 80.8 32.8 80.5 33 80.3 33.1 80 33.2 79.8 33.2 79.5 33.3 79.2 33.3 79 33.3 78.7 33.3 78.6 33.3 78.5 33.2 78.5 33.1 78.4 32.9 78.4 32.7 78.3 32.4 78.3 32.1 78.3 31.7 78.2 31.3 78.2 30.7 78.1 30 78.1 29.3 78.1 28.5 78.2 27.5 78.3 25.5 78.3 24 78.2 23 78.1 21.9 78.1 21.1 78.1 20.6ZM80.5 13.6C81 13.6 81.5 13.7 81.9 14 82.3 14.3 82.5 14.6 82.5 15.1 82.5 15.5 82.4 15.8 82.2 16.1 82.1 16.5 81.9 16.7 81.6 17 81.3 17.3 81 17.5 80.7 17.6 80.4 17.8 80.1 17.8 79.8 17.8 79.4 17.8 79.1 17.8 78.9 17.7 78.7 17.5 78.5 17.4 78.3 17.2 78.2 17 78.1 16.8 78.1 16.6 78 16.4 78 16.2 78 16 78 15.8 78 15.5 78.1 15.2 78.2 14.9 78.3 14.7 78.5 14.4 78.7 14.2 78.9 14 79.3 13.8 79.6 13.6 80 13.6 80.5 13.6ZM79.7 16.8C79.8 16.8 80 16.8 80.1 16.7 80.3 16.6 80.5 16.4 80.6 16.3 80.8 16.2 80.9 16 81 15.8 81.1 15.7 81.2 15.5 81.2 15.4 81.2 15.2 81.1 15.1 80.9 15.1 80.8 15.1 80.6 15.2 80.4 15.3 80.3 15.4 80.1 15.5 79.9 15.6 79.8 15.8 79.6 15.9 79.5 16.1 79.4 16.2 79.4 16.3 79.4 16.5 79.4 16.7 79.5 16.8 79.7 16.8ZM94.3 31.2C94.4 31.4 94.4 31.5 94.5 31.7 94.6 31.8 94.7 31.9 94.8 32 95 32.1 95.1 32.2 95.3 32.2 95.1 32.5 95 32.7 94.8 32.9 94.7 32.9 94.6 33 94.6 33 94.4 33.1 94 33.1 93.6 33.1 93.2 33.1 92.8 33 92.4 32.7 92.2 32.6 92.1 32.4 92 32.2 91.9 32 91.8 31.7 91.7 31.4 91.6 31.1 91.6 30.6 91.5 30.1 91.2 30.8 90.8 31.3 90.4 31.8 90 32.2 89.6 32.5 89.2 32.6 88.7 32.9 88.3 33.1 87.8 33.1 87.2 33.2 86.7 33.1 86.1 32.8 85.6 32.6 85.2 32.2 84.8 31.7 84.4 31.2 84.2 30.6 84 29.8 83.8 29.1 83.7 28.3 83.8 27.4 83.9 26.4 84.1 25.6 84.4 24.8 84.7 24.1 85 23.4 85.5 22.8 85.9 22.2 86.3 21.7 86.8 21.3 87.3 20.9 87.7 20.6 88.1 20.3 88.6 20 89 19.8 89.3 19.7 89.6 19.6 89.8 19.5 89.9 19.5 90.1 19.4 90.4 19.4 90.6 19.4 90.7 19.4 90.9 19.5 91.1 19.7 91.1 19.8 91.2 19.9 91.2 20 91.3 20.1 91.3 20.2 91.4 20.3 91.5 20.5 91.5 20.6 91.6 20.8 91 21.1 90.5 21.4 90 21.7 89.5 22 89 22.4 88.6 22.8 88.2 23.3 87.9 23.8 87.6 24.5 87.3 25.1 87 25.9 86.9 26.8 86.6 27.9 86.7 28.9 87 29.6 87.4 30.3 87.9 30.6 88.6 30.4 88.9 30.3 89.3 30.1 89.6 29.8 89.9 29.5 90.3 29.1 90.6 28.5 90.9 27.9 91.3 27.2 91.6 26.2 91.7 24.8 91.8 23.7 91.9 22.9 92 22.1 92 21.4 92.1 21 92.2 20.5 92.3 20.2 92.3 20 92.4 19.9 92.5 19.8 92.7 19.7 92.9 19.6 93.2 19.5 93.4 19.4 93.7 19.4 93.9 19.3 94.1 19.3 94.4 19.3 94.5 19.3 94.6 19.3 94.6 19.3 94.6 19.6 94.6 20.2 94.6 20.7 94.6 21.4 94.6 22.3 94.5 23.1 94.5 24 94.5 25 94.4 25.9 94.4 26.9 94.3 27.7 94.3 28.6 94.3 29.4 94.3 30 94.3 30.6 94.3 31 94.3 31.2Z" fill="#0065FC"/></svg>